<svg version="1.1" id="Layer_1" xmlns="http://www.w3.org/2000/svg" x="0" y="0" viewBox="0 0 482.3 482.3" style="enable-background:new 0 0 482.3 482.3" xml:space="preserve">
<style>.st0,.st2,.st3{fill:#1074bc;opacity:.5;enable-background:new}.st2,.st3{opacity:.7;fill:#0c82bf}.st3{opacity:.8}.st5{opacity:.5;fill:#048fbf}.st5,.st6,.st8{enable-background:new}.st6{fill:#048fbf;opacity:.8}.st8{opacity:.7}.st8,.st9{fill:#019ec0}.st10{opacity:.7;enable-background:new}.st10,.st11{fill:#00abbf}.st12,.st13,.st15,.st16,.st18{enable-background:new;opacity:.5;fill:#02b8be}.st13,.st15,.st16,.st18{opacity:.8}.st15,.st16,.st18{opacity:.7;fill:#31bdba}.st16,.st18{opacity:.8}.st18{opacity:.5;fill:#47c0b4}</style>
<path class="st0" d="M301.5 422h60.3v60.3h-60.3z"/>
<path d="M241.2 422h60.3v60.3h-60.3zm-60.3 0h60.3v60.3h-60.3z" style="enable-background:new;opacity:.7;fill:#1074bc"/>
<path class="st0" d="M120.6 422h60.3v60.3h-60.3z"/>
<path class="st2" d="M361.8 361.8h60.3v60.3h-60.3z"/>
<path class="st3" d="M301.5 361.8h60.3v60.3h-60.3z"/>
<path d="M241.2 361.8h60.3v60.3h-60.3zm-60.3 0h60.3v60.3h-60.3z" style="fill:#0c82bf"/>
<path class="st3" d="M120.6 361.8h60.3v60.3h-60.3z"/>
<path class="st2" d="M60.3 361.8h60.3v60.3H60.3z"/>
<path class="st5" d="M422 301.5h60.3v60.3H422z"/>
<path class="st6" d="M361.8 301.5h60.3v60.3h-60.3z"/>
<path d="M301.5 301.5h60.3v60.3h-60.3zm-60.3 0h60.3v60.3h-60.3zm-60.3 0h60.3v60.3h-60.3zm-60.3 0h60.3v60.3h-60.3z" style="fill:#048fbf"/>
<path class="st6" d="M60.3 301.5h60.3v60.3H60.3z"/>
<path class="st5" d="M0 301.5h60.3v60.3H0z"/>
<path class="st8" d="M422 241.2h60.3v60.3H422z"/>
<path class="st9" d="M361.8 241.2h60.3v60.3h-60.3zm-60.3 0h60.3v60.3h-60.3zm-60.3 0h60.3v60.3h-60.3zm-60.3 0h60.3v60.3h-60.3zm-60.3 0h60.3v60.3h-60.3z"/>
<path class="st9" d="M60.3 241.2h60.3v60.3H60.3z"/>
<path class="st8" d="M0 241.2h60.3v60.3H0z"/>
<path class="st10" d="M422 180.9h60.3v60.3H422z"/>
<path class="st11" d="M361.8 180.9h60.3v60.3h-60.3zm-60.3 0h60.3v60.3h-60.3zm-60.3 0h60.3v60.3h-60.3zm-60.3 0h60.3v60.3h-60.3zm-60.3 0h60.3v60.3h-60.3z"/>
<path class="st11" d="M60.3 180.9h60.3v60.3H60.3z"/>
<path class="st10" d="M0 180.9h60.3v60.3H0z"/>
<path class="st12" d="M422 120.6h60.3v60.3H422z"/>
<path class="st13" d="M361.8 120.6h60.3v60.3h-60.3z"/>
<path d="M301.5 120.6h60.3v60.3h-60.3zm-60.3 0h60.3v60.3h-60.3zm-60.3 0h60.3v60.3h-60.3zm-60.3 0h60.3v60.3h-60.3z" style="fill:#02b8be"/>
<path class="st13" d="M60.3 120.6h60.3v60.3H60.3z"/>
<path class="st12" d="M0 120.6h60.3v60.3H0z"/>
<path class="st15" d="M361.8 60.3h60.3v60.3h-60.3z"/>
<path class="st16" d="M301.5 60.3h60.3v60.3h-60.3z"/>
<path d="M241.2 60.3h60.3v60.3h-60.3zm-60.3 0h60.3v60.3h-60.3z" style="fill:#31bdba"/>
<path class="st16" d="M120.6 60.3h60.3v60.3h-60.3z"/>
<path class="st15" d="M60.3 60.3h60.3v60.3H60.3z"/>
<path class="st18" d="M301.5 0h60.3v60.3h-60.3z"/>
<path d="M241.2 0h60.3v60.3h-60.3zm-60.3 0h60.3v60.3h-60.3z" style="opacity:.7;fill:#47c0b4;enable-background:new"/>
<path class="st18" d="M120.6 0h60.3v60.3h-60.3z"/>
<path d="m158.8 222.1 16.8-37.6c6.1-9.6 5.3-21.4-1.4-28.1-.9-.9-1.9-1.7-2.9-2.4-4.7-2.9-10.3-3.5-15.5-1.8-5.8 1.8-10.8 5.7-14 10.8 0 0-23 53.7-31.6 77.8S105 309.2 138 342.3c35 35 85.7 43 118 18.7 1.4-.7 2.6-1.5 3.8-2.5l99.6-83.2c4.8-4 12-12.2 5.6-21.6-6.3-9.2-18.1-2.9-23 .2l-57.3 41.7c-1.1.9-2.7.8-3.6-.3 0 0 0-.1-.1-.1-1.5-1.8-1.7-6.5.6-8.4l87.9-74.6c7.6-6.8 8.6-16.8 2.5-23.6-6-6.7-15.5-6.5-23.2.4l-79.1 61.9c-1.5 1.2-3.7 1-4.9-.5 0-.1-.1-.1-.1-.2-1.6-1.8-2.2-4.7-.4-6.5l89.6-86.9c7.1-6.6 7.5-17.7.9-24.7-3.2-3.3-7.6-5.2-12.2-5.2-4.7-.1-9.2 1.7-12.6 5l-91.6 86c-2.2 2.2-6.5 0-7-2.6-.2-.9.1-1.9.8-2.6l70.1-79.8c7-6.5 7.4-17.4.9-24.4s-17.4-7.4-24.4-.9c-.3.3-.6.5-.8.8L171.5 225.9c-3.8 3.8-9.4 4-12.1 1.8-1.7-1.3-2-3.8-.6-5.6z" style="fill:#fff"/>
</svg>