<svg xmlns="http://www.w3.org/2000/svg" width="256px" height="256px" viewBox="0 0 256 256"><path fill="#ffffff" d="M184.275,85.933l28.852-16.609c3.457-2.302,4.66-6.816,2.813-10.533c-2.031-4.076-6.979-5.734-11.055-3.705 l-28.852,16.607c-3.457,2.303-4.66,6.817-2.809,10.535C175.253,86.303,180.203,87.962,184.275,85.933z"/><path fill="#ffffff" d="M136.413,50.009c4.47,0.863,8.794-2.059,9.659-6.527l8.509-32.086c0.704-3.989-1.597-7.896-5.426-9.219 c-4.304-1.487-8.995,0.795-10.48,5.098l-8.491,31.961c-0.125,0.364-0.225,0.735-0.297,1.113 C129.021,44.818,131.943,49.144,136.413,50.009z"/><path fill="#ffffff" d="M63.058,93.528c1.365-4.343-1.047-8.971-5.391-10.337h-0.063l-32.002-8.655 c-3.989-0.701-7.897,1.598-9.22,5.426c-1.486,4.304,0.796,8.996,5.099,10.483l31.921,8.655 C57.578,100.031,61.773,97.61,63.058,93.528z"/><path fill="#ffffff" d="M61.933,137.573l-28.851,16.61c-3.456,2.303-4.661,6.813-2.809,10.532 c2.028,4.078,6.977,5.736,11.052,3.707l28.85-16.609c3.457-2.303,4.662-6.818,2.81-10.535 C70.956,137.204,66.007,135.546,61.933,137.573z"/><path fill="#ffffff" d="M240.002,170.565c-0.094-0.82-0.274-1.629-0.539-2.411c-0.271-0.815-0.625-1.603-1.049-2.349 c-0.338-0.631-0.73-1.23-1.174-1.793c-0.447-0.6-0.937-1.163-1.466-1.69l-0.123-0.146c-0.53-0.535-1.097-1.038-1.69-1.504 c-0.658-0.528-1.348-1.023-2.061-1.482l-39.153-25.533c-25.842-16.876-51.786-33.814-79.626-52.031l-0.619-0.33 c-0.811-0.422-1.678-0.729-2.576-0.906c-0.875-0.168-1.772-0.203-2.659-0.104c-0.704,0.082-1.396,0.248-2.061,0.494 c-0.657,0.232-1.281,0.553-1.854,0.948c-1.201,0.815-2.185,1.912-2.865,3.194c-0.425,0.808-0.724,1.676-0.885,2.576 c-0.136,0.908-0.136,1.832,0,2.739l14.034,141.304v0.351l2.657,7.192l0.186,0.435l0.227,0.411c0.456,0.729,0.973,1.421,1.545,2.061 c0.579,0.596,1.214,1.135,1.896,1.607c0.682,0.472,1.415,0.865,2.185,1.174c0.785,0.322,1.599,0.563,2.432,0.723 c0.681,0.123,1.37,0.199,2.061,0.229c0.73,0.002,1.46-0.047,2.185-0.146c0.697-0.095,1.387-0.244,2.061-0.455 c0.707-0.199,1.396-0.453,2.062-0.761c0.882-0.37,1.736-0.805,2.554-1.3c0.857-0.512,1.686-1.076,2.476-1.688l0.165-0.123 c0.822-0.601,1.626-1.301,2.432-2.062c0.797-0.772,1.555-1.583,2.266-2.433l15.847-18.547l18.712,30.664 c0.383,0.644,0.833,1.242,1.34,1.793c0.495,0.517,1.035,0.992,1.608,1.422c0.594,0.423,1.229,0.789,1.896,1.092 c0.662,0.311,1.354,0.555,2.061,0.742c0.68,0.154,1.367,0.258,2.063,0.308c0.686,0.063,1.374,0.063,2.061,0 c0.699-0.052,1.388-0.177,2.062-0.37c0.638-0.185,1.259-0.427,1.854-0.721c6.132-3.189,12.063-6.745,17.766-10.653l4.121-2.657 c0.604-0.41,1.168-0.873,1.688-1.381c0.519-0.512,0.987-1.07,1.403-1.669c0.397-0.584,0.748-1.194,1.05-1.836 c0.284-0.624,0.512-1.271,0.681-1.937v-0.206c0.545-2.188,0.438-4.488-0.311-6.615c-0.25-0.717-0.567-1.403-0.947-2.062 l-18.547-30.785l6.697-1.588c5.646-1.36,11.334-2.741,17.043-3.854c1.078-0.233,2.146-0.53,3.191-0.886 c0.95-0.352,2.041-0.764,3.012-1.195c0.944-0.427,1.869-0.91,2.761-1.443c0.833-0.515,1.634-1.084,2.391-1.709 c0.601-0.479,1.167-1.004,1.69-1.566c0.505-0.531,0.966-1.104,1.381-1.71c0.85-1.179,1.503-2.485,1.936-3.874 c0.233-0.801,0.391-1.622,0.477-2.451C240.094,172.231,240.094,171.396,240.002,170.565z M227.924,172.565 c-0.238,0.281-0.5,0.543-0.781,0.78c-0.825,0.641-1.725,1.172-2.682,1.588c-1.194,0.514-2.438,0.912-3.707,1.194 c-11.006,2.763-22.34,5.152-33.427,7.687c-2.662,0.604-4.33,3.253-3.729,5.917c0.06,0.254,0.145,0.501,0.248,0.74 c5.482,11.582,16.753,27.925,23.72,39.504l-19.927,12.077v-0.022l-23.576-38.639c-1.406-2.322-4.426-3.077-6.76-1.688 c-3.709,2.144-19.516,22.48-23.494,27.159c-0.847,0.992-1.779,1.907-2.781,2.741c-0.803,0.657-1.689,1.205-2.637,1.628 c-0.338,0.149-0.689,0.271-1.05,0.351c-0.198,0.027-0.399,0.027-0.598,0l-0.268-0.287c-0.229-0.405-0.408-0.834-0.537-1.278 c-0.179-0.677-0.303-1.364-0.371-2.062c-2.576-43.707-8.943-90.568-13.291-134.586l113.196,73.939 c0.608,0.378,1.182,0.813,1.711,1.296c0.358,0.313,0.664,0.685,0.905,1.095l0.125,0.37 C228.145,172.247,228.045,172.417,227.924,172.565z"/><path fill="#ffffff" d="M92.946,41.193l-16.609-28.85c-2.302-3.458-6.817-4.661-10.535-2.81c-4.075,2.028-5.733,6.977-3.705,11.051 l16.484,28.853c2.298,3.615,6.982,4.867,10.778,2.881c4.034-2.11,5.592-7.09,3.482-11.125H92.946z"/></svg>