<svg xmlns="http://www.w3.org/2000/svg" width="512px" height="512px" viewBox="0 0 512 512"><path d="M444.917,142.87c-7.151,0-12.953,5.802-12.953,12.953v204.581c0,32.609-2.294,41.641-24.784,54.678l-139.893,67.152 c-7.126,3.449-15.475,3.449-22.601,0l-139.893-67.168c-22.457-13.037-24.75-22.068-24.75-54.662V155.823 c0-7.134-5.768-12.919-12.902-12.953c-7.151,0-12.953,5.802-12.953,12.953v204.581c-0.278,34.592,3.314,57.908,38.825,77.734 l140.534,67.445c14.227,6.891,30.806,6.891,45.04,0c3.229-1.955,138.282-65.945,141.874-68.256 c34.87-20.365,37.408-42.678,37.408-76.924V155.823C457.869,148.655,452.068,142.87,444.917,142.87z" fill="#ffffff"/><path d="M460.585,95.663H350.409c-44.972-0.067-81.41-36.506-81.461-81.461c0-7.151-5.802-12.953-12.953-12.953 c-7.151,0-12.953,5.785-12.953,12.953c-0.051,44.972-36.489,81.411-81.461,81.461H51.405c-16.832,0.034-17.009,25.838,0,25.906 h110.176c39.406-0.034,75.643-21.639,94.414-56.281c18.771,34.643,55.008,56.248,94.414,56.281h110.176 C477.493,121.501,477.543,95.739,460.585,95.663z" fill="#ffffff"/><path d="M363.455,247.767c-2.336-7.286-8.635-12.59-16.199-13.678l-50.623-7.354l-22.642-45.858 c-6.771-14.749-29.22-14.682-35.992,0l-22.642,45.858l-50.606,7.354c-10.979,1.594-18.578,11.781-16.992,22.76 c-1.02,9.343,32.399,35.874,42.485,47.19l-8.635,50.412c-1.864,10.945,5.515,21.344,16.478,23.207 c8.449,3.836,44.609-20.037,57.908-25.822l45.268,23.807c9.824,5.16,21.968,1.375,27.112-8.449 c6.308-6.975-5.128-48.119-6.611-63.137l36.632-35.689C363.885,263.021,365.851,255.019,363.455,247.767z M301.482,287.629 c-4.748,4.613-6.907,11.258-5.785,17.785l7.168,41.785l-37.51-19.725c-5.852-3.078-12.852-3.078-18.704,0l-37.526,19.74 l7.167-41.801c1.122-6.512-1.037-13.156-5.768-17.77l-30.384-29.598l41.97-6.098c6.544-0.936,12.194-5.043,15.128-10.971 l18.755-38.049l18.771,37.999c2.918,5.928,8.585,10.035,15.112,10.971l41.97,6.098L301.482,287.629z" fill="#ffffff"/></svg>