<svg xmlns="http://www.w3.org/2000/svg" viewbox="0 0 64 64" width="64" height="64"><path d="M52.64,27.39a.71.71,0,0,0-.06-.83l-9.89-12a.78.78,0,0,0-.58-.27H21.89a.78.78,0,0,0-.58.27l-9.89,12a.75.75,0,0,0,0,.94l20,25a.76.76,0,0,0,1.2,0l20-25A.39.39,0,0,0,52.64,27.39ZM23,27.78l6.89,20.44L13.56,27.78Zm1.58,0H39.38L32,49.65Zm16.34,0h9.48L34.07,48.22Zm9.45-1.5H41L37.31,15.75h4.44ZM35.72,15.75l3.65,10.53H24.63l3.65-10.53Zm-13.47,0h4.44L23,26.28H13.59Z"></path><path d="M32,60.75A28.75,28.75,0,1,1,60.75,32,28.79,28.79,0,0,1,32,60.75Zm0-56A27.25,27.25,0,1,0,59.25,32,27.28,27.28,0,0,0,32,4.75Z"></path></svg>