<svg xmlns="http://www.w3.org/2000/svg" width="256px" height="256px" viewBox="0 0 256 256"><path d="M252.541,148.1c-4.735-19.466-16.788-36.813-33.145-48.66c-15.492-11.001-34.862-16.924-54.232-16.079 c-9.039-18.616-24.102-33.426-43.902-41.891c-1.722-0.846-4.304,0-5.165,2.118c-0.861,1.691,0,4.228,2.152,5.078 c18.51,8.038,33.141,22.002,40.889,40.195c1.722,3.809,3.014,8.042,4.305,12.27c0.431,1.272,0.431,2.118,0.86,3.387 c3.874,19.039,0.431,38.503-9.899,55.005c-9.471,15.656-24.532,27.08-41.75,33.004c-0.43-0.846-0.43-1.269-0.861-2.114 c-0.43-1.269-0.861-2.964-1.722-4.232v-0.423c0-0.846-0.431-1.269-0.431-2.118c32.714-11.001,52.941-44.427,45.624-78.276 c0-0.845-0.431-1.691-0.431-2.114c-1.291-5.078-3.013-9.733-5.596-14.388c-6.883-13.538-18.505-24.539-32.279-30.889 c-6.887-2.96-13.774-5.078-21.092-5.923l26.688-24.54c1.292-1.272,1.722-3.386,0.431-4.655L110.501,4.662 c-0.861-0.85-1.722-1.695-3.013-1.695H67.46c-1.292,0-2.583,0.423-3.013,1.695L51.964,22.855c-0.861,1.691-0.861,3.383,0.431,4.655 l26.688,24.54c-2.583,0.423-5.596,0.846-8.179,1.269c-36.588,8.887-59.397,45.699-50.362,82.089 c3.874,14.807,12.483,28.349,24.966,37.658c11.622,8.46,25.396,13.538,39.597,13.961v0.846c0,0.846,0.43,1.272,0.43,2.118v0.423 c0,0.423,0.431,1.269,0.431,1.691v0.423c0,0.422,0.431,1.268,0.431,1.69v0.427c0.43,0.846,0.43,1.269,0.861,2.114 c-16.354,0-32.71-5.077-46.484-14.811c-15.066-10.578-25.823-26.657-30.127-44.427c-4.305-17.771-2.152-36.813,6.026-52.892 c8.174-16.079,21.949-29.194,38.736-35.963c1.722-0.85,2.583-2.963,2.152-4.655c-0.861-1.695-3.013-2.541-4.735-2.118 c-18.509,8.042-33.571,22.002-42.61,39.776c-9.039,17.77-11.622,38.504-6.887,57.966c4.735,19.465,16.784,36.813,33.141,48.659 c14.635,10.578,32.284,16.079,50.358,16.079h3.444c14.205,29.62,44.767,48.659,77.906,48.659c6.888,0,13.344-0.846,20.231-2.537 C235.753,239.495,263.732,193.372,252.541,148.1z M161.29,163.333c10.331-16.925,14.635-36.39,11.622-55.855 c12.053,0.85,24.104,5.078,34.001,12.696c11.192,8.46,18.94,19.885,21.953,33.426c8.179,32.581-12.053,65.161-45.193,73.199 c-15.926,3.81-32.714,1.272-46.484-7.192c-8.608-5.077-15.926-12.27-20.661-20.733C135.037,192.949,150.959,180.257,161.29,163.333z M107.918,176.448c-1.722-13.538,0.861-27.08,7.748-38.927c7.318-12.27,18.94-21.58,32.71-26.234 C152.681,139.636,135.467,167.139,107.918,176.448z M69.613,10.585h36.153l7.318,10.578H62.295L69.613,10.585z M64.878,28.778 h45.624L87.688,49.512L64.878,28.778z M83.813,179.834c-12.048-0.846-24.101-5.077-33.571-12.27 c-11.191-8.464-18.939-20.311-22.383-33.853c-8.178-32.158,12.053-65.161,45.197-72.776c13.771-3.386,27.975-2.118,40.889,3.81 c11.191,5.078,20.662,13.538,26.688,23.693c-19.371,6.769-35.297,19.888-45.627,37.235 C84.674,142.176,81.235,161.215,83.813,179.834z M187.547,243.301c-6.026,1.694-12.482,2.117-18.509,2.117 c-31.419,0-59.828-18.619-72.311-46.968c0-0.423-0.431-0.423-0.431-0.846v-0.423c0-0.423-0.43-0.846-0.43-1.269 s-0.431-0.846-0.431-1.269c0-0.427-0.43-0.85-0.43-1.695c0-0.422-0.431-0.845-0.431-1.69c0-0.423-0.43-0.846-0.43-1.269v-0.423 c0-0.423,0-0.85-0.431-1.272c0-0.423-0.431-0.846-0.431-1.691c0-0.423-0.43-1.269-0.43-1.691v-2.118 c-3.444-18.192-0.431-37.235,9.039-53.311c9.47-16.505,24.536-28.352,42.611-34.275c1.291,2.964,2.152,5.923,3.013,8.887 c-15.923,5.078-28.836,15.656-37.445,30.04c-8.609,14.811-11.622,31.735-8.179,48.236v0.846c0,0.423,0,0.85,0.431,1.272 c0,0.423,0.431,1.269,0.431,1.691v0.423c0,0.423,0.43,0.846,0.43,1.269v0.423c0,0.423,0.431,0.85,0.431,1.272v0.423 c0,0.423,0.43,1.269,0.43,1.691c5.166,14.387,15.496,26.234,28.84,34.694c10.761,6.35,23.24,9.732,35.723,9.732 c5.596,0,11.191-0.846,16.357-2.114c37.015-8.887,59.828-45.699,50.788-82.085c-3.874-15.233-12.482-27.93-24.966-37.659 c-11.618-8.887-25.393-13.542-40.027-14.388v-0.846c-0.86-2.963-1.722-5.5-2.583-8.464c16.788,0,33.145,5.078,46.484,14.81 c15.066,10.579,25.827,26.234,30.132,44.005C255.554,191.259,229.728,233.148,187.547,243.301z"/></svg>