<svg xmlns="http://www.w3.org/2000/svg" width="256px" height="256px" viewBox="0 0 256 256"><path fill="#010101" d="M254.663,145.464l-6.695-17.506l6.646-17.604c0.595-1.636,0.298-3.471-0.743-4.811l-11.754-14.679 l0.893-18.795c0.1-1.736-0.743-3.421-2.231-4.364l-15.721-10.315l-4.959-18.15c-0.445-1.686-1.785-2.976-3.471-3.471l-18.15-4.959 l-10.314-15.721c-0.942-1.438-2.579-2.281-4.364-2.231l-18.795,0.893l-14.63-11.654c-1.339-1.091-3.223-1.389-4.81-0.744 l-17.605,6.595l-17.604-6.645c-1.636-0.595-3.471-0.297-4.811,0.744L90.864,13.8l-18.795-0.893c-1.736-0.1-3.421,0.744-4.364,2.231 l-10.315,15.72l-18.15,4.959c-1.686,0.446-2.976,1.785-3.471,3.471L30.81,57.44L15.089,67.755 c-1.438,0.942-2.281,2.628-2.231,4.364l0.893,18.795L2.097,105.543c-1.091,1.339-1.389,3.224-0.744,4.811l6.595,17.604 l-6.645,17.605c-0.595,1.636-0.297,3.471,0.744,4.81L13.8,165.052l-0.893,18.796c-0.1,1.735,0.744,3.421,2.231,4.363l15.72,10.315 l4.959,18.15c0.446,1.686,1.785,2.976,3.471,3.471l18.15,4.96l10.315,15.72c0.942,1.438,2.628,2.281,4.364,2.231l18.795-0.893 l14.679,11.753c1.338,1.091,3.223,1.389,4.81,0.744l17.555-6.695l17.605,6.646c0.545,0.198,1.14,0.298,1.735,0.298 c1.141,0,2.231-0.396,3.074-1.091l14.679-11.754l18.796,0.894c1.735,0.099,3.421-0.794,4.363-2.231l10.315-15.721l18.15-4.959 c1.686-0.446,2.976-1.786,3.471-3.472l4.96-18.15l15.72-10.314c1.438-0.942,2.281-2.629,2.231-4.364l-0.893-18.795l11.753-14.679 C255.01,148.936,255.308,147.051,254.663,145.464z M238.05,129.694l6.298,16.712l-11.157,13.935 c-0.744,0.942-1.091,2.083-1.042,3.323l0.843,17.853l-14.926,9.818c-0.992,0.645-1.736,1.637-2.034,2.827l-4.711,17.208 l-17.208,4.711c-1.141,0.298-2.182,1.042-2.826,2.033l-9.819,14.928l-17.853-0.844c-1.19-0.05-2.381,0.348-3.322,1.091 l-13.936,11.158l-16.662-6.397c-1.092-0.396-2.38-0.446-3.472,0l-16.712,6.298L95.576,233.19c-0.893-0.694-1.984-1.091-3.075-1.091 c-0.1,0-0.149,0-0.248,0L74.4,232.942l-9.819-14.928c-0.645-0.991-1.637-1.735-2.827-2.032l-17.208-4.712l-4.711-17.208 c-0.297-1.141-1.042-2.182-2.033-2.826l-14.927-9.819l0.843-17.853c0.05-1.189-0.347-2.38-1.091-3.322l-11.158-13.936l6.397-16.612 c0.446-1.141,0.446-2.38,0-3.472l-6.298-16.712l11.158-13.935c0.744-0.942,1.141-2.132,1.091-3.323L22.975,74.4l14.927-9.819 c0.992-0.645,1.735-1.637,2.033-2.827l4.711-17.208l17.208-4.711c1.14-0.297,2.182-1.042,2.826-2.033L74.5,22.875l17.853,0.843 c1.19,0.05,2.38-0.347,3.323-1.091l13.935-11.158l16.613,6.397c1.141,0.446,2.38,0.446,3.472,0l16.712-6.298l13.935,11.158 c0.942,0.744,2.133,1.141,3.323,1.091l17.853-0.843l9.818,14.927c0.645,0.992,1.637,1.735,2.827,2.033l17.208,4.711l4.711,17.208 c0.298,1.14,1.042,2.182,2.033,2.826l14.928,9.819l-0.844,17.853c-0.05,1.19,0.348,2.38,1.091,3.323l11.158,13.935l-6.397,16.613 C237.604,127.363,237.604,128.603,238.05,129.694z"/><path fill="#010101" d="M128,27.281C72.458,27.281,27.281,72.458,27.281,128c0,55.542,45.177,100.719,100.719,100.719 c55.542,0,100.719-45.177,100.719-100.719C228.719,72.458,183.542,27.281,128,27.281z M93.769,128.406 c2.182,0,3.967-1.785,3.967-3.967v-8.431c0-0.198,0-0.396-0.049-0.545c2.976-2.281,5.306-4.612,6.843-6.248 c1.438-1.538,3.075-2.629,4.761-3.174c9.273-3.025,15.522-7.885,19.142-11.406c4.513-4.414,7.24-9.075,7.24-12.397 c0-1.736,0.694-3.372,1.935-4.612c1.239-1.24,2.925-1.884,4.711-1.884c2.231,0,3.669,1.141,4.513,2.083 c1.438,1.637,2.132,3.967,1.884,6.249c-0.843,7.835-7.141,17.505-15.968,24.696c-1.289,1.042-1.785,2.827-1.24,4.364 c0.546,1.587,2.033,2.628,3.72,2.628h36.399c3.62,0,6.596,2.926,6.596,6.597c0,3.668-2.926,6.545-6.546,6.545h-4.066 c-2.182,0-3.967,1.785-3.967,3.967c0,2.184,1.785,3.969,3.967,3.969c2.479,0,6.447,1.982,6.447,4.463 c0,2.479-1.984,4.463-4.464,4.463h-6.198c-2.183,0-3.968,1.785-3.968,3.967c0,2.184,1.785,3.969,3.968,3.969 c2.479,0,6.446,1.982,6.446,4.463c0,2.479-1.983,4.463-4.463,4.463h-6.199c-2.182,0-3.967,1.785-3.967,3.967 s1.785,3.967,3.967,3.967c2.479,0,6.447,1.984,6.447,4.463c0,2.48-1.983,4.465-4.463,4.465H97.736V141.35 c0-2.182-1.785-3.967-3.967-3.967s-3.967,1.785-3.967,3.967v42.055c0,0.148-0.099,0.248-0.248,0.248H64.312 c-0.149,0-0.248-0.1-0.248-0.248v-67.396c0-0.149,0.099-0.248,0.248-0.248h25.242c0.149,0,0.248,0.099,0.248,0.248v8.431 C89.801,126.621,91.586,128.406,93.769,128.406z M128,217.908c-24.877,0-47.419-10.148-63.71-26.521h25.214 c3.074,0,5.752-1.686,7.141-4.215h64.419c6.794,0,12.348-5.553,12.348-12.348c0-2.281-0.645-4.463-1.735-6.299 c3.57-2.182,5.901-6.1,5.901-10.563c0-2.281-0.645-4.463-1.735-6.297c3.57-2.184,5.901-6.1,5.901-10.564 c0-2.578-0.794-4.959-2.133-6.941c4.017-2.48,6.546-6.895,6.546-11.854c0-7.984-6.496-14.48-14.48-14.48h-26.581 c6.447-7.24,10.662-15.522,11.506-22.96c0.495-4.513-0.893-9.025-3.819-12.348c-2.678-3.025-6.347-4.711-10.364-4.761 c-0.05,0-0.099,0-0.148,0c-3.868,0-7.488,1.488-10.216,4.166c-2.728,2.728-4.265,6.298-4.265,10.166 c-0.149,0.843-1.637,3.769-5.257,7.191c-2.976,2.827-8.083,6.694-15.67,9.174c-2.976,0.942-5.703,2.727-8.084,5.256 c-1.24,1.339-3.124,3.174-5.455,5.009c-1.141-0.595-2.43-0.942-3.818-0.942H64.262c-4.513,0-8.133,3.67-8.133,8.133v66.06 c-11.32-15.039-18.037-33.731-18.037-53.97c0-49.59,40.317-89.908,89.908-89.908c49.591,0,89.908,40.317,89.908,89.908 C217.908,177.591,177.591,217.908,128,217.908z"/></svg>