<svg xmlns="http://www.w3.org/2000/svg" width="256px" height="256px" viewBox="0 0 256 256"><path fill="#010101" d="M128,1C57.856,1,1,57.857,1,128c0,70.143,56.856,127,127,127c70.143,0,127-56.857,127-127l0,0 C255,57.857,198.143,1,128,1z M128,243.24c-63.649,0-115.24-51.597-115.24-115.24C12.76,64.351,64.351,12.76,128,12.76 c63.644,0,115.24,51.591,115.24,115.24l0,0C243.172,191.62,191.62,243.172,128,243.24z M128,210.018 c-34.205,0.333-65.021-20.625-77.258-52.572l10.91-4.364c14.435,36.645,55.84,54.64,92.485,40.216 c18.397-7.258,32.958-21.819,40.216-40.216l10.91,4.353c-12.242,31.948-43.053,52.906-77.264,52.562V210.018z M169.158,116.241 c-2.137-0.005-4.227-0.552-6.086-1.585c-1.861-1.039-3.492-2.452-4.767-4.151c-1.274-1.699-2.263-3.606-2.894-5.633 c-1.274-4.083-1.274-8.458,0-12.541c0.631-2.026,1.619-3.933,2.894-5.633c1.274-1.699,2.905-3.112,4.767-4.151 c3.788-2.107,8.383-2.107,12.172,0c1.86,1.039,3.492,2.452,4.767,4.151c1.285,1.706,2.262,3.612,2.894,5.645 c1.274,4.083,1.274,8.446,0,12.529c-0.632,2.027-1.619,3.934-2.894,5.633c-1.274,1.7-2.906,3.112-4.767,4.151 C173.385,115.689,171.294,116.235,169.158,116.241z M86.842,116.241c-2.13-0.005-4.226-0.552-6.092-1.585 c-1.861-1.039-3.485-2.452-4.76-4.151c-1.28-1.699-2.263-3.606-2.894-5.633c-1.274-4.083-1.274-8.458,0-12.541 c0.631-2.026,1.614-3.933,2.894-5.633c1.275-1.699,2.899-3.112,4.76-4.151c3.789-2.107,8.395-2.107,12.184,0 c1.86,1.039,3.485,2.452,4.76,4.151c1.287,1.706,2.263,3.612,2.895,5.645c1.269,4.083,1.269,8.446,0,12.529 c-0.632,2.027-1.614,3.934-2.895,5.633c-1.274,1.7-2.899,3.112-4.76,4.151C91.068,115.689,88.972,116.235,86.842,116.241z"/></svg>